<svg xmlns="http://www.w3.org/2000/svg" version="1.1" xmlns:xlink="http://www.w3.org/1999/xlink" xmlns:svgjs="http://svgjs.dev/svgjs" width="2000" height="696" viewBox="0 0 2000 696"><g transform="matrix(1,0,0,1,-1.2112696095522324,-0.3414998820942401)"><svg viewBox="0 0 396 138" data-background-color="#ffffff" preserveAspectRatio="xMidYMid meet" height="696" width="2000" xmlns="http://www.w3.org/2000/svg" xmlns:xlink="http://www.w3.org/1999/xlink"><g id="tight-bounds" transform="matrix(1,0,0,1,0.24008861730862918,0.06774097331773987)"><svg viewBox="0 0 395.52 137.8645478431636" height="137.8645478431636" width="395.52"><g><svg viewBox="0 0 395.52 137.8645478431636" height="137.8645478431636" width="395.52"><g><svg viewBox="0 0 395.52 137.8645478431636" height="137.8645478431636" width="395.52"><g id="textblocktransform"><svg viewBox="0 0 395.52 137.8645478431636" height="137.8645478431636" width="395.52" id="textblock"><g><svg viewBox="0 0 395.52 101.67691686420878" height="101.67691686420878" width="395.52"><path d="M394.594 21.808C392.735 11.254 387.435 8.32 387.435 8.32 371.165-2.551 350.86-0.208 332.619 1.354 300.414 1.417 268.339 3.739 236.208 4.985 168.767 5.175 100.749 2.051 33.643 9.755 27.339 12.119-6.54 10.219 1.121 23.159 3.129 28.541 10.456 34.515 10.232 39.454 11.236 40.32 12.631 38.335 13.226 39.581 15.309 42.937 18.711 41.354 21.501 43.338 17.614 48.636 20.403 53.048 23.062 57.67 18.377 58.874 12.371 58.304 9.675 62.293 9.396 65.185 7.89 64.636 6.235 64.509 5.026 64.425 2.59 64.742 2.999 65.649 4.394 68.752-1.594 70.546 2.162 73.586-0.422 76.879 3.948 79.728 3.353 83.296 3.278 84.013 3.687 84.625 4.338 84.794 7.22 85.702 3.018 87.475 3.464 89.396 33.029 102.525 65.104 93.448 95.394 99.485 103.259 95.264 97.346 100.984 100.489 100.098 102.943 99.063 104.728 103.348 107.499 100.921 107.927 100.224 107.276 98.578 108.8 98.894 109.6 99.063 110.307 99.021 110.418 98.05 110.586 96.594 109.117 97.501 108.726 96.741 112.947 92.9 111.906 102.039 115.866 101.66 115.68 100.541 114.528 98.937 116.889 99.148 119.232 97.543 119.306 96.214 121.389 99.823 121.463 100.604 121.835 101.153 122.43 101.533 128.938 97.607 135.409 102.926 142.233 101.153 146.417 99.211 150.433 102.208 154.672 101.47 156.16 100.879 157.666 99.823 159.098 101.596 176.632 101.976 195.319 100.393 211.943 101.66 256.364 99.295 303.836 102.631 350.674 99.507 361.719 98.303 373.192 96.594 383.958 95.222 383.958 95.222 392.679 91.464 392.679 74.578S394.538 59.802 394.817 46.356C395.096 32.911 396.398 32.362 394.538 21.808Z" opacity="1" fill="#7b1127" data-fill-palette-color="tertiary"></path><g transform="matrix(1,0,0,1,55.76832,26.068561146666667)"><svg width="283.98335999999995" viewBox="2.65 -38.55 232.43 40.55" height="49.53979457087544" data-palette-color="#ffffff"><path d="M14.35 0.3L14.35 0.3Q11.05 0.3 8.4-0.83 5.75-1.95 4.2-4.48 2.65-7 2.65-11.15L2.65-11.15 2.65-25.1Q2.65-29.25 4.2-31.78 5.75-34.3 8.38-35.43 11-36.55 14.15-36.55L14.15-36.55Q17.65-36.55 20.33-35.4 23-34.25 24.55-32.1 26.1-29.95 26.1-26.95L26.1-26.95Q26.1-25.1 25.3-24.48 24.5-23.85 22.85-23.85L22.85-23.85Q21.55-23.85 20.6-24.3 19.65-24.75 19.6-25.9L19.6-25.9Q19.55-27.1 19.13-28.23 18.7-29.35 17.63-30.1 16.55-30.85 14.35-30.85L14.35-30.85Q11.9-30.85 10.5-29.43 9.1-28 9.1-25.1L9.1-25.1 9.1-11.15Q9.1-8.25 10.5-6.83 11.9-5.4 14.35-5.4L14.35-5.4Q16.8-5.4 18.2-6.83 19.6-8.25 19.6-11.15L19.6-11.15 19.6-14.1 15.55-14.1Q14.6-14.1 14.08-14.9 13.55-15.7 13.55-16.65L13.55-16.65Q13.55-17.6 14.08-18.4 14.6-19.2 15.55-19.2L15.55-19.2 24.05-19.2Q25.05-19.2 25.58-18.57 26.1-17.95 26.1-17.1L26.1-17.1 26.1-11.15Q26.1-7 24.55-4.48 23-1.95 20.33-0.83 17.65 0.3 14.35 0.3ZM34.35 0L34.35 0Q32.95 0 32.05-0.65 31.15-1.3 31.15-2.05L31.15-2.05 31.15-35.6Q31.15-36.5 32.05-37.05 32.95-37.6 34.35-37.6L34.35-37.6Q35.7-37.6 36.65-37.05 37.6-36.5 37.6-35.6L37.6-35.6 37.6-2.05Q37.6-1.3 36.65-0.65 35.7 0 34.35 0ZM52.95 0.45L52.95 0.45Q50.05 0.45 47.59-0.98 45.15-2.4 43.65-4.75 42.15-7.1 42.15-9.8L42.15-9.8 42.15-13.9Q42.15-16.6 43.59-18.93 45.05-21.25 47.52-22.65 50-24.05 52.95-24.05L52.95-24.05Q55.9-24.05 58.37-22.68 60.84-21.3 62.32-19 63.8-16.7 63.8-13.9L63.8-13.9 63.8-9.8Q63.8-7.15 62.3-4.8 60.8-2.45 58.32-1 55.84 0.45 52.95 0.45ZM52.95-5.2L52.95-5.2Q54.15-5.2 55.15-5.85 56.15-6.5 56.75-7.58 57.34-8.65 57.34-9.8L57.34-9.8 57.34-13.9Q57.34-15.05 56.75-16.05 56.15-17.05 55.17-17.73 54.2-18.4 52.95-18.4L52.95-18.4Q51.75-18.4 50.75-17.75 49.75-17.1 49.17-16.07 48.59-15.05 48.59-13.9L48.59-13.9 48.59-9.8Q48.59-8.65 49.17-7.58 49.75-6.5 50.75-5.85 51.75-5.2 52.95-5.2ZM80.94 0.45L80.94 0.45Q78.59 0.45 76.69-0.75 74.79-1.95 73.99-3.5L73.99-3.5 73.99-2.05Q73.99-1.3 73.17-0.65 72.34 0 71.09 0L71.09 0Q69.74 0 68.84-0.65 67.94-1.3 67.94-2.05L67.94-2.05 67.94-35.6Q67.94-36.5 68.84-37.05 69.74-37.6 71.09-37.6L71.09-37.6Q72.49-37.6 73.44-37.05 74.39-36.5 74.39-35.6L74.39-35.6 74.39-20.25Q75.19-21.7 76.84-22.88 78.49-24.05 80.79-24.05L80.79-24.05Q83.24-24.05 85.27-22.68 87.29-21.3 88.49-19 89.69-16.7 89.69-13.9L89.69-13.9 89.69-9.8Q89.69-7.15 88.49-4.8 87.29-2.45 85.29-1 83.29 0.45 80.94 0.45ZM78.89-5.2L78.89-5.2Q80.09-5.2 81.09-5.88 82.09-6.55 82.67-7.6 83.24-8.65 83.24-9.8L83.24-9.8 83.24-13.9Q83.24-15.05 82.67-16.05 82.09-17.05 81.09-17.73 80.09-18.4 78.84-18.4L78.84-18.4Q77.79-18.4 76.77-17.85 75.74-17.3 75.07-16.3 74.39-15.3 74.39-13.9L74.39-13.9 74.39-8.9Q74.39-8.4 74.99-7.53 75.59-6.65 76.62-5.93 77.64-5.2 78.89-5.2ZM98.94 0.45L98.94 0.45Q96.29 0.45 94.37-1.18 92.44-2.8 92.44-6.2L92.44-6.2Q92.44-9.05 93.92-10.65 95.39-12.25 98.02-12.9 100.64-13.55 104.09-13.55L104.09-13.55 106.14-13.55 106.14-14.2Q106.14-15.3 105.72-16.35 105.29-17.4 104.37-18.1 103.44-18.8 101.74-18.8L101.74-18.8Q99.84-18.8 98.82-18.43 97.79-18.05 97.24-17.65 96.69-17.25 96.04-17.25L96.04-17.25Q94.99-17.25 94.42-18.3 93.84-19.35 93.84-20.45L93.84-20.45Q93.84-21.5 95.12-22.33 96.39-23.15 98.24-23.6 100.09-24.05 101.84-24.05L101.84-24.05Q105.74-24.05 108.09-22.65 110.44-21.25 111.52-19.05 112.59-16.85 112.59-14.3L112.59-14.3 112.59-2.05Q112.59-1.2 111.69-0.6 110.79 0 109.44 0L109.44 0Q108.19 0 107.37-0.6 106.54-1.2 106.54-2.05L106.54-2.05 106.54-3.5Q105.19-1.95 103.37-0.75 101.54 0.45 98.94 0.45ZM101.54-4.35L101.54-4.35Q102.59-4.35 103.64-5.05 104.69-5.75 105.42-6.85 106.14-7.95 106.14-9.15L106.14-9.15 106.14-10.2 105.39-10.2Q103.74-10.2 102.24-10 100.74-9.8 99.82-9.13 98.89-8.45 98.89-7.05L98.89-7.05Q98.89-5.65 99.67-5 100.44-4.35 101.54-4.35ZM121.04 0L121.04 0Q119.64 0 118.74-0.65 117.84-1.3 117.84-2.05L117.84-2.05 117.84-35.6Q117.84-36.5 118.74-37.05 119.64-37.6 121.04-37.6L121.04-37.6Q122.39-37.6 123.34-37.05 124.29-36.5 124.29-35.6L124.29-35.6 124.29-2.05Q124.29-1.3 123.34-0.65 122.39 0 121.04 0ZM159.18 0L141.38 0Q140.53 0 139.53-0.58 138.53-1.15 138.53-2.05L138.53-2.05 138.53-6.9Q138.53-8.9 139.68-10.63 140.83-12.35 142.68-13.9 144.53-15.45 146.58-16.9 148.63-18.35 150.46-19.85 152.28-21.35 153.46-22.9 154.63-24.45 154.63-26.2L154.63-26.2Q154.63-27.25 154.16-28.28 153.68-29.3 152.66-29.98 151.63-30.65 149.98-30.65L149.98-30.65Q148.18-30.65 146.86-29.63 145.53-28.6 145.53-26.25L145.53-26.25Q145.53-25.35 144.63-24.6 143.73-23.85 142.13-23.85L142.13-23.85Q140.83-23.85 140.03-24.6 139.23-25.35 139.23-27.35L139.23-27.35Q139.23-30.2 140.73-32.27 142.23-34.35 144.71-35.45 147.18-36.55 149.93-36.55L149.93-36.55Q152.83-36.55 155.41-35.33 157.98-34.1 159.56-31.85 161.13-29.6 161.13-26.4L161.13-26.4Q161.13-23.75 159.98-21.6 158.83-19.45 157.03-17.7 155.23-15.95 153.21-14.53 151.18-13.1 149.38-11.88 147.58-10.65 146.43-9.45 145.28-8.25 145.28-6.9L145.28-6.9 145.28-5.7 159.18-5.7Q160.03-5.7 160.63-4.88 161.23-4.05 161.23-2.9L161.23-2.9Q161.23-1.75 160.63-0.88 160.03 0 159.18 0L159.18 0ZM178.78 0L178.78 0Q177.53 0 176.53-0.53 175.53-1.05 175.53-2.05L175.53-2.05 175.53-7.95 163.53-7.95Q162.58-7.95 161.93-8.58 161.28-9.2 161.28-10.25L161.28-10.25Q161.28-10.55 161.38-10.9 161.48-11.25 161.63-11.55L161.63-11.55 173.48-34.85Q173.98-35.8 174.71-36.18 175.43-36.55 176.23-36.55L176.23-36.55Q176.83-36.55 177.58-36.25 178.33-35.95 178.91-35.4 179.48-34.85 179.48-34.05L179.48-34.05Q179.48-33.75 179.23-33.2L179.23-33.2 169.63-14 175.53-14 175.53-19.25Q175.53-20.35 176.53-20.83 177.53-21.3 178.78-21.3L178.78-21.3Q179.98-21.3 181.01-20.83 182.03-20.35 182.03-19.25L182.03-19.25 182.03-14 184.33-14Q185.38-14 185.91-13.05 186.43-12.1 186.43-10.95L186.43-10.95Q186.43-9.85 185.78-8.9 185.13-7.95 184.33-7.95L184.33-7.95 182.03-7.95 182.03-2.05Q182.03-1.05 181.01-0.53 179.98 0 178.78 0ZM189.73 2L189.73 2Q188.73 2 188.05 1.3 187.38 0.6 187.38-0.2L187.38-0.2Q187.38-0.65 187.58-1.05L187.58-1.05 205.58-37.5Q206.08-38.55 207.38-38.55L207.38-38.55Q208.28-38.55 209.08-37.93 209.88-37.3 209.88-36.3L209.88-36.3Q209.88-35.8 209.68-35.4L209.68-35.4 191.68 0.9Q191.48 1.4 190.9 1.7 190.33 2 189.73 2ZM219.28 0.25L219.28 0.25Q218.33 0.25 217.35-0.18 216.38-0.6 215.8-1.35 215.23-2.1 215.23-3L215.23-3Q215.23-3.6 215.53-4.15L215.53-4.15 228.58-27.55 228.58-30.85 218.13-30.85 218.13-26.8Q218.13-25.95 217.13-25.33 216.13-24.7 214.83-24.7L214.83-24.7Q213.53-24.7 212.58-25.33 211.63-25.95 211.63-26.8L211.63-26.8 211.63-34.5Q211.63-35.25 212.53-35.9 213.43-36.55 214.48-36.55L214.48-36.55 232.23-36.55Q233.18-36.55 234.13-35.9 235.08-35.25 235.08-34.5L235.08-34.5 235.08-28.8Q235.08-28.05 234.68-26.98 234.28-25.9 233.78-25L233.78-25 221.18-0.7Q220.68 0.25 219.28 0.25Z" opacity="1" transform="matrix(1,0,0,1,0,0)" fill="#ffffff" class="wordmark-text-0" data-fill-palette-color="quaternary" id="text-0"></path></svg></g></svg></g><g transform="matrix(1,0,0,1,152.84563138666937,113.37207340732277)"><svg viewBox="0 0 89.82873722666126 24.492474435840816" height="24.492474435840816" width="89.82873722666126"><g transform="matrix(1,0,0,1,0,0)"><svg width="89.82873722666126" viewBox="3.5 -35 130.19 35.5" height="24.492474435840816" data-palette-color="#000000"><path d="M10.75 0L4.75 0Q4.2 0 3.85-0.38 3.5-0.75 3.5-1.25L3.5-1.25 3.5-33.75Q3.5-34.3 3.85-34.65 4.2-35 4.75-35L4.75-35 10.05-35Q10.9-35 11.28-34.63 11.65-34.25 11.75-34.05L11.75-34.05 23.95-14.85 23.95-33.75Q23.95-34.3 24.3-34.65 24.65-35 25.2-35L25.2-35 31.2-35Q31.75-35 32.1-34.65 32.45-34.3 32.45-33.75L32.45-33.75 32.45-1.3Q32.45-0.75 32.1-0.38 31.75 0 31.2 0L31.2 0 25.85 0Q25.05 0 24.68-0.4 24.3-0.8 24.2-0.95L24.2-0.95 12-19.45 12-1.25Q12-0.75 11.65-0.38 11.3 0 10.75 0L10.75 0ZM50.9 0.5L50.9 0.5Q45 0.5 41.5-2.7 38-5.9 37.85-12.2L37.85-12.2Q37.85-12.55 37.85-13.1 37.85-13.65 37.85-13.95L37.85-13.95Q38-17.9 39.62-20.73 41.25-23.55 44.12-25.03 47-26.5 50.85-26.5L50.85-26.5Q55.25-26.5 58.12-24.75 61-23 62.45-20 63.9-17 63.9-13.15L63.9-13.15 63.9-11.95Q63.9-11.4 63.55-11.05 63.2-10.7 62.65-10.7L62.65-10.7 46.65-10.7Q46.65-10.65 46.65-10.55 46.65-10.45 46.65-10.35L46.65-10.35Q46.7-8.9 47.17-7.7 47.65-6.5 48.57-5.8 49.5-5.1 50.85-5.1L50.85-5.1Q51.85-5.1 52.52-5.43 53.2-5.75 53.65-6.18 54.1-6.6 54.35-6.9L54.35-6.9Q54.8-7.45 55.07-7.58 55.35-7.7 55.95-7.7L55.95-7.7 62.15-7.7Q62.65-7.7 62.97-7.4 63.3-7.1 63.25-6.6L63.25-6.6Q63.2-5.75 62.4-4.55 61.6-3.35 60.07-2.18 58.55-1 56.25-0.25 53.95 0.5 50.9 0.5ZM46.65-15.75L46.65-15.65 55.1-15.65 55.1-15.75Q55.1-17.4 54.62-18.57 54.15-19.75 53.17-20.4 52.2-21.05 50.85-21.05L50.85-21.05Q49.55-21.05 48.6-20.4 47.65-19.75 47.15-18.57 46.65-17.4 46.65-15.75L46.65-15.75ZM80.35 0L75.85 0Q75.1 0 74.75-0.38 74.4-0.75 74.2-1.25L74.2-1.25 67-24.4Q66.9-24.65 66.9-24.9L66.9-24.9Q66.9-25.35 67.25-25.68 67.6-26 68.05-26L68.05-26 73.2-26Q73.85-26 74.22-25.65 74.6-25.3 74.7-24.95L74.7-24.95 78.9-10.65 83.4-24.9Q83.5-25.25 83.87-25.63 84.25-26 84.95-26L84.95-26 88.25-26Q88.95-26 89.35-25.63 89.75-25.25 89.8-24.9L89.8-24.9 94.3-10.65 98.5-24.95Q98.6-25.3 98.97-25.65 99.35-26 100-26L100-26 105.15-26Q105.6-26 105.95-25.68 106.3-25.35 106.3-24.9L106.3-24.9Q106.3-24.65 106.2-24.4L106.2-24.4 99-1.25Q98.85-0.75 98.47-0.38 98.1 0 97.35 0L97.35 0 92.85 0Q92.15 0 91.75-0.38 91.35-0.75 91.2-1.25L91.2-1.25 86.6-14.95 82-1.25Q81.85-0.75 81.45-0.38 81.05 0 80.35 0L80.35 0ZM121.19 0.5L121.19 0.5Q117.94 0.5 115.67-0.23 113.39-0.95 111.97-2 110.54-3.05 109.84-4.17 109.14-5.3 109.09-6.15L109.09-6.15Q109.04-6.7 109.44-7.05 109.84-7.4 110.29-7.4L110.29-7.4 115.99-7.4Q116.14-7.4 116.27-7.35 116.39-7.3 116.54-7.15L116.54-7.15Q117.19-6.8 117.84-6.28 118.49-5.75 119.34-5.35 120.19-4.95 121.39-4.95L121.39-4.95Q122.79-4.95 123.74-5.53 124.69-6.1 124.69-7.15L124.69-7.15Q124.69-7.95 124.24-8.47 123.79-9 122.42-9.5 121.04-10 118.29-10.5L118.29-10.5Q115.69-11.1 113.74-12.08 111.79-13.05 110.74-14.63 109.69-16.2 109.69-18.45L109.69-18.45Q109.69-20.45 110.99-22.3 112.29-24.15 114.79-25.33 117.29-26.5 120.99-26.5L120.99-26.5Q123.84-26.5 125.99-25.83 128.14-25.15 129.59-24.1 131.04-23.05 131.79-21.95 132.54-20.85 132.59-19.95L132.59-19.95Q132.64-19.45 132.29-19.07 131.94-18.7 131.49-18.7L131.49-18.7 126.29-18.7Q126.09-18.7 125.89-18.78 125.69-18.85 125.54-18.95L125.54-18.95Q124.94-19.25 124.34-19.75 123.74-20.25 122.94-20.65 122.14-21.05 120.94-21.05L120.94-21.05Q119.59-21.05 118.84-20.45 118.09-19.85 118.09-18.9L118.09-18.9Q118.09-18.25 118.52-17.7 118.94-17.15 120.27-16.7 121.59-16.25 124.39-15.7L124.39-15.7Q127.84-15.15 129.89-13.93 131.94-12.7 132.82-11.08 133.69-9.45 133.69-7.65L133.69-7.65Q133.69-5.25 132.24-3.4 130.79-1.55 128.02-0.53 125.24 0.5 121.19 0.5Z" opacity="1" transform="matrix(1,0,0,1,0,0)" fill="#000000" class="slogan-text-1" data-fill-palette-color="secondary" id="text-1"></path></svg></g></svg></g></svg></g></svg></g><g></g></svg></g><defs></defs></svg><rect width="395.52" height="137.8645478431636" fill="none" stroke="none" visibility="hidden"></rect></g></svg></g></svg>